<?xml version="1.0" encoding="UTF-8"?>
<!DOCTYPE svg PUBLIC "-//W3C//DTD SVG 1.1//EN" "http://www.w3.org/Graphics/SVG/1.1/DTD/svg11.dtd">
<!-- Creator: CorelDRAW X7 -->
<svg xmlns="http://www.w3.org/2000/svg" xml:space="preserve" width="0.300524in" height="0.304543in" version="1.1" style="shape-rendering:geometricPrecision; text-rendering:geometricPrecision; image-rendering:optimizeQuality; fill-rule:evenodd; clip-rule:evenodd"
viewBox="0 0 14 14"
 xmlns:xlink="http://www.w3.org/1999/xlink">
 <defs>
  <style type="text/css">
   <![CDATA[
    .fil0 {fill:#1C4FC3}
   ]]>
  </style>
 </defs>
 <g id="Layer_x0020_1">
  <metadata id="CorelCorpID_0Corel-Layer"/>
  <path class="fil0" d="M7 0l0 0 0 0 0 0 0 0 0 0 0 0 7 2c1,9 -1,11 -7,12l0 0 0 0 0 0 0 0c-6,-1 -7,-3 -7,-12l7 -2zm-6 3c0,1 0,3 0,5 1,1 1,2 2,3 1,1 3,2 4,2l0 0c2,0 3,-1 5,-2 0,-1 1,-2 1,-3 0,-2 0,-4 0,-5l-6 -2 -6 2z"/>
 </g>
</svg>
